<svg xmlns="http://www.w3.org/2000/svg" viewBox="0 0 1814.6 813.77"><defs><style>.cls-1{fill:#ec707a;}.cls-2,.cls-3,.cls-4{fill:#26afc0;}.cls-2,.cls-3{stroke:#26afc0;stroke-miterlimit:10;}.cls-2{stroke-width:32px;}.cls-5{fill:#fccb5b;}</style></defs><g id="Layer_2" data-name="Layer 2"><path class="cls-1" d="M27.11,590.54h95.43c1.1,15.91,14.81,24.68,37.29,24.68,20.29,0,33.46-8.22,33.46-20.29,0-13.71-11.52-19.19-51.56-24.13C67.15,562,30.4,531.86,30.4,480.86c0-57.59,49.36-95.43,126.14-95.43,71.3,0,122.3,38.94,125.59,94.88H190.54c-1.64-14.26-14.25-21.39-35.09-21.39-19.2,0-30.17,6.58-30.17,18.1,0,13.71,13.71,20.29,53.2,24.68,74,8.22,110.78,38.94,110.78,91.59,0,57.58-52.1,96-130.52,96C79.76,689.26,29.85,651.42,27.11,590.54Z"/><path class="cls-1" d="M308.72,537.34c0-88.84,64.72-151.91,156.31-151.91,81.71,0,142,51,152.46,126.69H524.26c-9.32-23.59-31.26-38.39-57.59-38.39-36.74,0-61.42,25.77-61.42,63.61S429.93,601,466.67,601c27.42,0,47.72-15.35,57.59-38.94H618c-10.42,75.69-70.75,127.24-153,127.24C373.44,689.26,308.72,625.64,308.72,537.34Z"/><path class="cls-1" d="M632.46,537.35c0-88.85,66.91-151.92,159.59-151.92S951.64,448.5,951.64,537.35c0,88.29-66.9,151.91-159.59,151.91S632.46,625.64,632.46,537.35Zm222.11,0c0-37.3-26.32-63.62-62.52-63.62-35.65,0-62.52,26.32-62.52,63.62S756.4,601,792.05,601C828.25,601,854.57,574.64,854.57,537.35Z"/><path class="cls-1" d="M1671.55,543.38c0,84.46-56.49,151.37-143.14,151.37-29.07,0-55.94-8.23-78.43-23V780.3h-97.07V398h81.71l3.29,25.78c24.14-19.74,55.4-31.81,90.5-31.81C1611.77,392,1671.55,455.08,1671.55,543.38Zm-96.53,0c0-37.3-26.32-63.62-63.07-63.62s-63.07,26.32-63.07,63.62S1475.21,607,1512,607,1575,580.67,1575,543.38Z"/><path class="cls-1" d="M1681.64,643.19c0-30.71,21.38-51,53.19-51s52.65,20.29,52.65,51c0,30.17-20.84,50.46-52.65,50.46S1681.64,673.36,1681.64,643.19Z"/><path class="cls-2" d="M1094.37,707.43c-21.48-11.74-38.74-28.11-52.87-48.09-16.42-23.21-28-48.4-31.55-76.68a436.32,436.32,0,0,1-2.93-49.31c-.34-32-4.5-63.31-13.84-94-15.65-51.45-39.57-98.95-68.42-144.08A626.23,626.23,0,0,0,852,202.41C804.66,152.32,749.59,113.8,684.76,89.73c-10.7-4-21.5-7.74-32-12.1C641.77,73.11,639.63,65,646.45,55.3c7.4-10.51,17.7-16.07,30.44-16.91,14-.94,27.37,2.06,40.3,7.19,26.59,10.56,51.29,24.64,75,40.46,54,36,103.37,77.29,143.69,128.67,24.57,31.3,45.36,64.74,60.87,101.49,18,42.51,30.07,86.76,40.59,131.52,3.42,14.55,6.82,29,13.09,42.72s15.69,24.66,29.29,31.15c11.32,5.4,23.1,9.95,34.91,14.2,22.58,8.13,45.54,15.27,68,23.76,25.36,9.58,48.72,22.82,68.83,41.35a144.39,144.39,0,0,1,31.3,42.34,60.47,60.47,0,0,1,6.23,22.88c.59,8.41-1.17,16.28-8.58,21.68-3.9,2.85-7.79,5.76-11.89,8.31s-8.47,4.72-12.76,7c-34.61,18.19-71.34,25.21-108,21.22C1127.54,721.38,1110.37,716.17,1094.37,707.43Zm162.14-24c-29.91-3.5-58.32-12.16-85.74-24.47-32.28-14.5-63.08-31.51-90.67-53.83a169.89,169.89,0,0,1-19.18-18.57,36,36,0,0,1-6.61-12.11c-2.14-6.19-.13-11.65,5.39-15.21a32.2,32.2,0,0,1,10.64-4.34c10.28-2.13,20.46-.29,30.55,1.84a7.67,7.67,0,0,1,4.36,2.58,5.84,5.84,0,0,1,.76,4.73c-.33.94-2.5,1.8-3.8,1.74-3.08-.15-6.12-1-9.21-1.31-6.15-.53-12.33-1-18.51-1.16a18.47,18.47,0,0,0-6.75,1.51c-4.94,1.89-6.45,5-4,9.59a51.29,51.29,0,0,0,8.11,11.24c12.13,12.7,26.36,22.82,41.09,32.22,29.33,18.7,60.29,34.15,93.28,45.33A243.13,243.13,0,0,0,1263.08,675a45.74,45.74,0,0,0,12.09-1c4.28-.8,5.12-2.1,4.85-6.5a52.42,52.42,0,0,0-5.25-20.13,134.25,134.25,0,0,0-29.15-39.62c-18.76-17.38-40.53-29.93-64.21-39-22.25-8.48-45-15.64-67.43-23.63-13.11-4.67-26.44-8.82-38.75-15.58a75.61,75.61,0,0,1-33.29-36.1c-7.18-15.85-10.58-32.76-14.64-49.53-9.67-40-20.59-79.55-36.06-117.76-16.31-40.29-38.88-76.69-66-110.5-33-41-72-75.34-114.52-106-25-18-50.86-34.79-78.88-47.89-11.23-5.25-22.54-10.27-34.75-13a65.18,65.18,0,0,0-22.52-1.1c-8.75,1.09-15.61,5.54-20.68,12.71-3.45,4.87-2.91,7,2.61,9.22,8.09,3.2,16.29,6.19,24.49,9.12,70,25.09,129.36,66,179.95,120.24a653,653,0,0,1,121.42,185c14.12,32.27,24.8,65.61,30.33,100.5,2.68,16.9,2.72,34,3.29,51,.59,17.62.66,35.31,3.86,52.72,5.06,27.49,17.54,51.54,34.56,73.52a138.51,138.51,0,0,0,47.38,39.5c27.67,14,57,17.72,87.61,13.77a182.92,182.92,0,0,0,66.34-22c4.54-2.53,9.09-5,13.64-7.57l-.15-1.11C1265,684,1260.72,683.92,1256.51,683.45Z"/><path class="cls-2" d="M706.11,82.24c-7.08-2.55-14.33-4.72-21.16-7.8-3.76-1.7-7.08-4.66-10.15-7.53a6.44,6.44,0,0,1-1.55-8,8.23,8.23,0,0,1,7.51-4.62c1.15-.05,2.45.57,3.44.22,8.2-3,15.73-.14,23,3a59.54,59.54,0,0,1,13.23,8.1,8.67,8.67,0,0,1,2.72,10.53c-1.66,4.07-5.19,5.64-9.25,5.93a57.75,57.75,0,0,1-7.53-.39C706.28,81.87,706.2,82.06,706.11,82.24Zm8.44-10c-8.94-8-19.29-9.9-30.78-10.24C688.61,68.24,707,74.34,714.55,72.24Z"/><polygon class="cls-3" points="1030.4 491.04 1023.77 604.35 1086.48 720.95 1250.45 712.54 1296.43 652.15 1235.21 571.66 1030.4 491.04"/><path class="cls-4" d="M735.48,79.89C746,89.56,760,94.34,772.61,101.06c11.84,6.31,22.62,14.43,33.19,22.71C879.29,181.33,946.64,250.83,982.6,337"/><path class="cls-4" d="M733.71,81.66c8.92,8.11,20,12.91,30.72,18.08a192.39,192.39,0,0,1,32.23,20.1c18.86,14.25,37.06,29.48,54.58,45.35a653.71,653.71,0,0,1,49.25,49.38,501,501,0,0,1,42.7,54.79,408.46,408.46,0,0,1,33.73,60.71q1.68,3.76,3.27,7.57a2.59,2.59,0,0,0,3.08,1.74,2.52,2.52,0,0,0,1.75-3.07,404.94,404.94,0,0,0-32.66-62.07,495.46,495.46,0,0,0-41.9-55.88,634.29,634.29,0,0,0-49.08-50.66c-17.16-15.92-35.07-31-53.48-45.44-10.33-8.1-20.84-16.1-32.37-22.45-10.45-5.76-21.8-9.88-31.74-16.57a56.7,56.7,0,0,1-6.54-5.12c-2.38-2.16-5.92,1.37-3.54,3.54Z"/><path class="cls-4" d="M746.72,87.58a766.34,766.34,0,0,1,78,52c8.38,6.36,16.67,12.93,23.7,20.76,6.53,7.26,11.88,15.49,17.42,23.54,41.93,60.89,96.28,112.92,134,176.5"/><path class="cls-4" d="M741.42,96.65q33.23,19.39,64.44,42c9.49,6.88,19.09,13.8,27.73,21.74S849,177.9,855.74,187.7c27.13,39.55,59.18,75.31,89,112.75,16.61,20.83,32.36,42.36,46,65.26,6.92,11.59,25.08,1,18.14-10.6C983.78,313,951.59,275.69,920.5,237.9c-15.1-18.35-30-36.9-43.58-56.4-7.43-10.64-14.41-21.74-23.46-31.12-8.41-8.72-18.26-16-27.93-23.22A775.54,775.54,0,0,0,752,78.52c-11.69-6.83-22.28,11.31-10.6,18.13Z"/><path class="cls-5" d="M1055,541.74c4.43-75.66,64.56-126,143.49-121.42S1331.24,482,1326.81,557.65c-4.4,75.2-64.55,126.05-143.49,121.43S1050.57,616.94,1055,541.74Zm189.17,11.07c1.86-31.76-19.25-55.49-50.08-57.29-30.36-1.78-54.56,19.3-56.41,51.06s19.71,55.52,50.07,57.3C1218.55,605.68,1242.28,584.57,1244.14,552.81Z"/><polygon class="cls-5" points="1235.96 476.75 1137.53 476.75 1116.56 549.7 1141.79 603.98 1225.87 612.53 1272.12 544.64 1237.64 480.52 1235.96 476.75"/></g></svg>