<svg xmlns="http://www.w3.org/2000/svg" xmlns:xlink="http://www.w3.org/1999/xlink" version="1.1" x="0px" y="0px" viewBox="0 0 512 640" style="enable-background:new 0 0 512 512;" xml:space="preserve"><g><path d="M309.5,211.4l-72.1,68.1l-34.6-35.6c-3.9-4-10.2-4-14.1-0.2c-4,3.9-4,10.2-0.2,14.1l41.5,42.6   c2,2,4.6,3,7.2,3c2.5,0,4.9-0.9,6.9-2.7l79.3-74.8c4-3.8,4.2-10.1,0.4-14.1C319.9,207.8,313.6,207.6,309.5,211.4z"/><path d="M256,106.6c-82.4,0-149.4,67-149.4,149.4s67,149.4,149.4,149.4s149.4-67,149.4-149.4   S338.4,106.6,256,106.6z M256,385.4c-71.4,0-129.4-58.1-129.4-129.4s58-129.4,129.4-129.4s129.4,58,129.4,129.4   S327.4,385.4,256,385.4z"/><path d="M461.6,201l3.3-59.3c0.2-4-1.9-7.7-5.5-9.5l-52.8-26.7l-26.7-52.8c-1.8-3.5-5.5-5.7-9.5-5.5L311,50.4   l-49.5-32.7c-3.3-2.2-7.7-2.2-11,0L201,50.4l-59.3-3.3c-4-0.2-7.7,1.9-9.5,5.5l-26.7,52.8l-52.8,26.7c-3.5,1.8-5.7,5.5-5.5,9.5   l3.3,59.3l-32.7,49.5c-2.2,3.3-2.2,7.7,0,11L50.4,311l-3.3,59.3c-0.2,4,1.9,7.7,5.5,9.5l52.8,26.7l26.7,52.8   c1.8,3.5,5.5,5.7,9.5,5.5l59.3-3.3l49.5,32.7c1.7,1.1,3.6,1.7,5.5,1.7c1.9,0,3.8-0.6,5.5-1.7l49.5-32.7l59.3,3.3   c4,0.2,7.7-1.9,9.5-5.5l26.7-52.8l52.8-26.7c3.5-1.8,5.7-5.5,5.5-9.5l-3.3-59.3l32.7-49.5c2.2-3.3,2.2-7.7,0-11L461.6,201z    M443,302.8c-1.2,1.8-1.8,3.9-1.6,6.1l3.1,56.1l-49.9,25.2c-1.9,1-3.5,2.5-4.4,4.4L365,444.5l-56.1-3.1c-2.1-0.1-4.3,0.5-6.1,1.6   L256,473.9L209.2,443c-1.6-1.1-3.6-1.7-5.5-1.7c-0.2,0-0.4,0-0.5,0l-56.1,3.1l-25.2-49.9c-1-1.9-2.5-3.5-4.4-4.4l-50-25.1l3.1-56.1   c0.1-2.1-0.5-4.3-1.6-6.1L38.1,256L69,209.2c1.2-1.8,1.8-3.9,1.6-6.1L67.5,147l49.9-25.2c1.9-1,3.5-2.5,4.4-4.4L147,67.5l56.1,3.1   c2.1,0.1,4.3-0.5,6.1-1.6L256,38.1L302.8,69c1.8,1.2,3.9,1.8,6.1,1.6l56.1-3.1l25.2,49.9c1,1.9,2.5,3.5,4.4,4.4l49.9,25.2   l-3.1,56.1c-0.1,2.1,0.5,4.3,1.6,6.1l30.9,46.8L443,302.8z"/></g><text x="0" y="527" fill="#000000" font-size="5px" font-weight="bold" font-family="'Helvetica Neue', Helvetica, Arial-Unicode, Arial, Sans-serif">Created by Paisley</text><text x="0" y="532" fill="#000000" font-size="5px" font-weight="bold" font-family="'Helvetica Neue', Helvetica, Arial-Unicode, Arial, Sans-serif">from the Noun Project</text></svg>