<svg xmlns="http://www.w3.org/2000/svg" xmlns:xlink="http://www.w3.org/1999/xlink" version="1.1" x="0px" y="0px" viewBox="0 0 512 640" enable-background="new 0 0 512 512" xml:space="preserve"><path d="M439.643,334.827c0.121-2.163,2.85-53.57-6.08-104.793c-0.599-3.428-3.852-5.724-7.29-5.125  c-0.682,0.119-1.3,0.367-1.878,0.677c-2.33,1.249-3.726,3.865-3.245,6.612c0.438,2.515,0.847,5.035,1.228,7.553  c0.005,0.028,0.008,0.055,0.012,0.083c4.62,30.487,5.238,60.666,5.085,78.385l0,0c-0.022,2.431-0.057,4.63-0.099,6.561  c0,0.008,0,0.016,0,0.023c-0.015,0.611-0.027,1.194-0.042,1.752c0,0.053-0.002,0.104-0.002,0.155  c-0.015,0.529-0.03,1.032-0.042,1.509c-0.002,0.063-0.005,0.121-0.008,0.182c-0.012,0.462-0.026,0.9-0.039,1.311  c-0.002,0.061-0.005,0.115-0.008,0.174c-0.012,0.385-0.023,0.75-0.036,1.084c-0.003,0.053-0.003,0.102-0.005,0.151  c-0.013,0.31-0.022,0.592-0.035,0.855c-0.002,0.062-0.004,0.126-0.007,0.185c-0.01,0.252-0.02,0.477-0.027,0.682  c-0.002,0.063-0.005,0.122-0.007,0.181c-0.01,0.177-0.018,0.332-0.022,0.468c-0.003,0.059-0.005,0.107-0.007,0.158  c-0.006,0.104-0.011,0.194-0.013,0.264c-0.005,0.068-0.005,0.104-0.008,0.138c-0.002,0.04-0.005,0.067-0.005,0.076  c-0.037,0.686,0.064,1.341,0.231,1.97c-0.14,0.525-0.241,1.065-0.241,1.635c0,8.31-33.592,32.324-85.513,32.324  c-6.933,0-13.527-0.439-19.771-1.201v-44.138c0-3.479-2.82-6.3-6.301-6.3c-3.479,0-6.3,2.82-6.3,6.3v54.255  c-1.53,9.103-6.364,23.304-12.172,25.885l-84.409,36.846c-0.43,0.188-0.749,0.359-1.125,0.637  c-0.202,0.139-5.069,3.372-14.113,2.614c-0.352-0.03-0.706-0.03-1.058,0c-9.045,0.769-13.91-2.476-14.027-2.552  c-0.377-0.277-0.782-0.512-1.212-0.699l-84.369-36.829c-5.885-2.614-10.629-16.552-12.212-25.905v-35.548c0-3.479-2.82-6.3-6.3-6.3  c-3.48,0-6.3,2.82-6.3,6.3v36.063c0,0.33,0.025,0.661,0.077,0.987c0.475,2.995,5.063,29.451,19.655,35.935l83.902,36.626  c2.309,1.464,9.658,5.371,21.314,4.52c1.122,0.082,2.205,0.119,3.246,0.119c9.777,0,15.979-3.314,18.066-4.639l83.94-36.643  c13.511-6.003,18.43-29.215,19.446-34.914c6.494,0.762,13.193,1.182,20.02,1.182c52.839,0,98.112-24.701,98.112-44.924  c0-0.555-0.093-1.084-0.229-1.596C439.537,335.715,439.618,335.279,439.643,334.827z"/><path d="M342.987,104.986c6.75,0.134,12.261-1.628,12.302-3.945c0.045-2.312-5.382-4.292-12.135-4.427  c-6.748-0.133-12.255,1.631-12.302,3.941C330.811,102.873,336.239,104.851,342.987,104.986z"/><path d="M294.31,86.982c-0.044,2.314,5.388,4.297,12.133,4.43c6.75,0.135,12.25-1.632,12.297-3.946  c0.05-2.313-5.382-4.291-12.132-4.425C299.861,82.906,294.354,84.669,294.31,86.982z"/><path d="M343.455,81.406c6.752,0.135,12.258-1.633,12.302-3.945c0.047-2.314-5.385-4.293-12.132-4.427  c-6.754-0.134-12.258,1.628-12.305,3.944C331.277,79.29,336.704,81.273,343.455,81.406z"/><path d="M377.729,92.825c6.745,0.135,12.25-1.631,12.297-3.946c0.045-2.312-5.387-4.291-12.133-4.426  c-6.75-0.133-12.252,1.628-12.299,3.94C365.549,90.71,370.979,92.692,377.729,92.825z"/><path d="M198.406,171.925c9.24,0,16.725-2.075,16.725-4.644c0-2.562-7.484-4.639-16.725-4.639c-9.236,0-16.723,2.077-16.723,4.639  C181.684,169.85,189.17,171.925,198.406,171.925z"/><path d="M148.029,157.685c9.239,0,16.722-2.079,16.722-4.644c0-2.564-7.482-4.639-16.722-4.639c-9.238,0-16.724,2.075-16.724,4.639  C131.306,155.606,138.791,157.685,148.029,157.685z"/><ellipse cx="198.407" cy="141.141" rx="16.724" ry="4.641"/><path d="M245.61,157.685c9.238,0,16.722-2.077,16.722-4.645c0-2.563-7.483-4.638-16.722-4.638c-9.241,0-16.725,2.075-16.725,4.638  C228.886,155.607,236.369,157.685,245.61,157.685z"/><path d="M84.472,316.979v-69.539c0-16.043,7.161-23.386,7.443-23.669l13.425-12.933c20.257,12.016,58.302,17.603,91.469,17.603  c33.598,0,72.218-5.738,92.267-18.085l12.436,13.199c0.081,0.085,0.165,0.169,0.248,0.25c0.077,0.07,7.41,7.48,7.41,23.635v50.303  c0,3.479,2.82,6.301,6.3,6.301c3.48,0,6.301-2.821,6.301-6.301v-16.17c6.472,0.612,13.126,0.928,19.771,0.928  c38.533,0,77.542-10.361,77.542-30.167c0-0.546-0.042-1.082-0.101-1.614c-0.021-0.185-0.05-0.368-0.077-0.551  c-0.051-0.345-0.117-0.687-0.193-1.027c-0.047-0.207-0.09-0.417-0.146-0.622c-0.118-0.439-0.257-0.874-0.416-1.302  c-0.008-0.023-0.013-0.046-0.022-0.069c-0.141-0.372-0.311-0.735-0.479-1.098c-0.074-0.162-0.141-0.325-0.22-0.484  c-0.167-0.331-0.361-0.655-0.554-0.979c-0.108-0.186-0.211-0.373-0.329-0.556c-0.199-0.309-0.416-0.612-0.635-0.915  c-0.141-0.19-0.276-0.382-0.424-0.569c-0.229-0.292-0.473-0.581-0.721-0.868c-0.165-0.189-0.33-0.377-0.502-0.564  c-0.262-0.28-0.529-0.557-0.811-0.831c-0.187-0.184-0.379-0.366-0.575-0.548c-0.29-0.269-0.586-0.537-0.896-0.8  c-0.207-0.177-0.424-0.35-0.638-0.524c-0.322-0.26-0.647-0.521-0.989-0.775c-0.222-0.166-0.453-0.328-0.685-0.491  c-0.356-0.255-0.714-0.511-1.09-0.759c-0.222-0.146-0.455-0.288-0.682-0.432c-0.406-0.257-0.81-0.517-1.233-0.768  c-0.14-0.083-0.29-0.161-0.433-0.243c-1.034-0.597-2.121-1.173-3.259-1.729c-0.13-0.064-0.256-0.132-0.389-0.196  c-0.455-0.218-0.93-0.429-1.4-0.641c-0.303-0.136-0.6-0.275-0.908-0.409c-0.447-0.194-0.912-0.382-1.375-0.571  c-0.348-0.143-0.694-0.287-1.051-0.426c-0.455-0.179-0.923-0.353-1.391-0.526c-0.379-0.141-0.758-0.283-1.146-0.42  c-0.465-0.166-0.938-0.327-1.415-0.487c-0.406-0.137-0.815-0.273-1.231-0.407c-0.475-0.153-0.951-0.303-1.437-0.451  c-0.433-0.132-0.871-0.262-1.312-0.391c-0.482-0.141-0.967-0.28-1.457-0.416c-0.458-0.127-0.921-0.25-1.386-0.373  c-0.489-0.129-0.979-0.259-1.474-0.383c-0.487-0.123-0.982-0.239-1.477-0.357c-0.487-0.116-0.973-0.234-1.467-0.346  c-0.534-0.121-1.078-0.236-1.622-0.352c-0.465-0.1-0.925-0.202-1.396-0.298c-0.701-0.143-1.412-0.277-2.123-0.412  c-0.555-0.104-1.11-0.208-1.669-0.307c-0.792-0.141-1.587-0.28-2.39-0.41c-0.438-0.071-0.881-0.135-1.321-0.204  c-0.635-0.098-1.271-0.196-1.909-0.288c-0.473-0.068-0.953-0.13-1.431-0.194c-0.617-0.083-1.235-0.167-1.857-0.244  c-0.487-0.061-0.978-0.116-1.468-0.173c-0.622-0.073-1.244-0.145-1.87-0.211c-0.494-0.052-0.989-0.102-1.485-0.15  c-0.631-0.063-1.258-0.122-1.891-0.179c-0.5-0.044-0.997-0.086-1.499-0.127c-0.638-0.052-1.274-0.101-1.914-0.146  c-0.5-0.037-0.999-0.071-1.499-0.104c-0.654-0.042-1.312-0.08-1.969-0.116c-0.484-0.027-0.97-0.055-1.457-0.078  c-0.688-0.033-1.381-0.061-2.072-0.087c-0.457-0.018-0.912-0.038-1.37-0.053c-0.763-0.024-1.526-0.041-2.292-0.058  c-0.386-0.008-0.774-0.02-1.164-0.026c-1.148-0.019-2.301-0.029-3.452-0.029c-8.44,0-16.904,0.498-24.976,1.482  c-2.53-5.119-5.184-8.028-5.938-8.793l-11.958-12.695c0.654-0.844,1.266-1.701,1.77-2.588c8.246-10.548,9.431-21.963,7.642-31.753  c9.851,2.034,20.814,3.261,32.428,3.492c1.329,0.026,2.646,0.039,3.957,0.039c20.177,0,38.321-3.096,51.795-8.4  c7.833,10.833,14.338,25.613,19.341,43.992c0.751,2.758,3.219,4.576,5.938,4.636c0.047,0.001,0.091,0.011,0.135,0.011  c0.55,0,1.105-0.073,1.659-0.223c3.356-0.914,5.338-4.376,4.425-7.734c-5.158-18.945-11.921-34.519-20.121-46.402  c5.077-3.293,8.798-7.06,10.815-11.201c14.05-21.45,1.411-58.762,0.862-60.351c-0.101-0.293-0.244-0.558-0.382-0.825  c-2.404-8.088-10.55-15.328-23.586-20.77c-14.062-5.872-32.711-9.321-52.511-9.714c-9.962-0.202-19.661,0.382-28.815,1.723  c-1.917,0.281-3.482,1.415-4.428,2.944c-0.75,1.216-1.117,2.678-0.893,4.202c0.504,3.443,3.701,5.827,7.146,5.321  c8.471-1.241,17.465-1.776,26.74-1.593c18.256,0.362,35.271,3.468,47.907,8.744c10.326,4.312,16.686,9.807,16.594,14.344  c-0.088,4.535-6.661,9.775-17.152,13.674c-12.834,4.771-29.979,7.194-48.215,6.836c-39.641-0.784-64.684-14.199-64.511-23.087  c0.091-4.535,6.664-9.774,17.155-13.674c3.261-1.212,4.922-4.839,3.711-8.1c-0.563-1.517-1.661-2.667-2.987-3.364  c-1.529-0.801-3.367-0.996-5.114-0.346c-13.252,4.925-21.686,11.846-24.4,19.845c-0.143,0.255-0.292,0.505-0.401,0.785  c-0.447,1.149-8.157,21.278-7.019,40.593c-17.96-4.439-39.699-6.702-61.332-6.702c-47.019,0-94.557,10.686-102.619,31.191  c-7.205,9.56-16.347,32.177-1.038,51.813c0.645,1.141,1.434,2.242,2.326,3.312l-12.282,11.833  c-0.462,0.439-11.336,11.005-11.336,32.777v69.539c0,3.479,2.819,6.3,6.3,6.3C81.651,323.279,84.472,320.459,84.472,316.979z   M341.54,234.769c40.286,0,64.941,11.374,64.941,17.566c0,6.193-24.655,17.567-64.941,17.567c-7.095,0-13.694-0.359-19.771-0.975  v-21.487c0-4.307-0.441-8.149-1.128-11.587C327.023,235.167,334.007,234.769,341.54,234.769z M272.358,103.32  c13.315,12.349,41.767,19.302,69.112,19.843c1.263,0.025,2.518,0.038,3.771,0.038c18.403,0,35.711-2.69,49.083-7.66  c7.096-2.637,12.808-5.846,17.006-9.484c1.804,11.307,2.106,24.937-3.591,33.33c-0.204,0.301-0.384,0.62-0.531,0.951  c-4.228,9.388-30.821,19.083-66.45,18.376c-14.33-0.284-27.129-2.194-37.564-4.995c-1.221-2.336-2.515-4.365-3.755-6.01  c-3.396-8.642-13.801-15.539-28.227-20.628C269.969,119.603,270.838,110.922,272.358,103.32z M129.779,137.941  c17.815-5.691,41.625-8.826,67.042-8.826c25.415,0,49.225,3.135,67.039,8.826c16.703,5.336,24.179,11.894,24.179,16.027  c0,4.134-7.476,10.692-24.179,16.027c-17.814,5.69-41.623,8.825-67.039,8.825c-25.418,0-49.228-3.134-67.042-8.825  c-16.704-5.335-24.18-11.894-24.18-16.027C105.6,149.835,113.075,143.277,129.779,137.941z M98.631,167.067  c14.831,16.037,56.711,24.353,98.19,24.353c41.448,0,83.299-8.305,98.155-24.319c1.998,7.085,2.257,16.341-4.72,25.03  c-0.251,0.314-0.473,0.651-0.659,1.008c-5.754,10.918-42.865,22.703-92.789,22.703c-49.973,0-87.073-11.798-92.788-22.729  c-0.188-0.36-0.411-0.701-0.665-1.019C96.365,183.364,96.621,174.132,98.631,167.067z"/><path d="M110.392,396.914l61.777,25.122c1.983,0.806,3.986,1.206,5.913,1.206c2.546,0,4.959-0.699,7.013-2.081  c3.556-2.392,5.595-6.536,5.595-11.368v-82.435c0-3.479-2.82-6.3-6.3-6.3s-6.3,2.82-6.3,6.3v82.435c0,0.396-0.049,0.678-0.097,0.851  c-0.204-0.011-0.56-0.068-1.079-0.28l-61.775-25.12c-3.044-1.239-5.922-5.41-5.922-8.583v-49.302c0-3.479-2.82-6.3-6.301-6.3  c-3.479,0-6.3,2.82-6.3,6.3v49.302C96.616,385.012,102.539,393.72,110.392,396.914z"/><path d="M102.916,308.922c3.48,0,6.301-2.821,6.301-6.301v-57.698c0-0.397,0.048-0.678,0.096-0.85  c0.204,0.011,0.56,0.067,1.079,0.279l61.777,25.123c3.044,1.236,5.921,5.406,5.921,8.579v24.566c0,3.479,2.82,6.301,6.3,6.301  s6.3-2.821,6.3-6.301v-24.566c0-8.354-5.922-17.061-13.775-20.252l-61.776-25.123c-4.604-1.872-9.314-1.553-12.926,0.876  c-3.557,2.392-5.596,6.535-5.596,11.367v57.698C96.616,306.101,99.437,308.922,102.916,308.922z"/><path d="M208.395,421.162c2.055,1.382,4.466,2.08,7.013,2.08c1.926,0,3.931-0.4,5.913-1.206l61.777-25.122  c7.854-3.194,13.776-11.902,13.776-20.254v-27.685v-21.617v-82.435c0-4.832-2.04-8.974-5.596-11.367  c-3.608-2.429-8.321-2.75-12.928-0.876l-14.384,5.851c-3.224,1.311-4.774,4.986-3.463,8.209c1.312,3.223,4.98,4.772,8.21,3.462  l14.382-5.85c0.521-0.212,0.878-0.269,1.08-0.279c0.049,0.172,0.099,0.453,0.099,0.85v82.435v21.617v27.685  c0,3.173-2.88,7.344-5.924,8.582l-61.777,25.121c-0.518,0.211-0.873,0.269-1.077,0.28c-0.048-0.173-0.096-0.454-0.096-0.851v-44.449  v-37.985v-49.304c0-3.173,2.876-7.343,5.92-8.58l24.826-10.096c3.222-1.311,4.772-4.986,3.463-8.209  c-1.312-3.222-4.983-4.772-8.21-3.463l-24.824,10.096c-7.853,3.191-13.775,11.898-13.775,20.252v49.304v37.985v44.449  C202.8,414.625,204.839,418.77,208.395,421.162z"/><path d="M115.606,263.542v65.02c0,3.479,2.82,6.3,6.3,6.3s6.3-2.82,6.3-6.3v-65.02c0-3.479-2.82-6.3-6.3-6.3  S115.606,260.063,115.606,263.542z"/><path d="M406.666,284.903c-3.479,0-6.3,2.821-6.3,6.3v47.385c0,3.479,2.82,6.301,6.3,6.301c3.48,0,6.301-2.822,6.301-6.301v-47.385  C412.967,287.725,410.146,284.903,406.666,284.903z"/><text x="0" y="527" fill="#000000" font-size="5px" font-weight="bold" font-family="'Helvetica Neue', Helvetica, Arial-Unicode, Arial, Sans-serif">Created by Chanut is Industries</text><text x="0" y="532" fill="#000000" font-size="5px" font-weight="bold" font-family="'Helvetica Neue', Helvetica, Arial-Unicode, Arial, Sans-serif">from the Noun Project</text></svg>