<svg xmlns:dc="http://purl.org/dc/elements/1.1/" xmlns:cc="http://creativecommons.org/ns#" xmlns:rdf="http://www.w3.org/1999/02/22-rdf-syntax-ns#" xmlns:svg="http://www.w3.org/2000/svg" xmlns="http://www.w3.org/2000/svg" xmlns:sodipodi="http://sodipodi.sourceforge.net/DTD/sodipodi-0.dtd" xmlns:inkscape="http://www.inkscape.org/namespaces/inkscape" version="1.1" x="0px" y="0px" viewBox="0 0 100 125"><g transform="translate(0,-952.36218)"><path d="m 35,960.36211 c -4.986,0 -9,4.01399 -9,9 l 0,66.00019 c 0,4.986 4.014,9 9,9 l 30,0 c 4.986,0 9,-4.014 9,-9 l 0,-66.00019 c 0,-4.98601 -4.014,-9 -9,-9 z m -4,10 38,0 0,60.00019 -38,0 z m 19,64.00019 c 1.6568,0 3,1.3432 3,3 0,1.6569 -1.3432,3 -3,3 -1.6569,0 -3,-1.3431 -3,-3 0,-1.6568 1.3431,-3 3,-3 z" style="color:#000000;enable-background:accumulate;" fill="#000000" stroke="none" marker="none" visibility="visible" display="inline" overflow="visible"/></g><text x="0" y="115" fill="#000000" font-size="5px" font-weight="bold" font-family="'Helvetica Neue', Helvetica, Arial-Unicode, Arial, Sans-serif">Created by Eagle Eye</text><text x="0" y="120" fill="#000000" font-size="5px" font-weight="bold" font-family="'Helvetica Neue', Helvetica, Arial-Unicode, Arial, Sans-serif">from the Noun Project</text></svg>