<svg xmlns="http://www.w3.org/2000/svg" data-name="Layer 1" viewBox="0 0 100 125" x="0px" y="0px"><path d="M84.05,21.52a2,2,0,0,0-2.82-2.84L45.73,53.89V28.41a2,2,0,0,0-4,0V53.17L31.44,43a2,2,0,1,0-2.81,2.84l13.1,13V76.62a26.58,26.58,0,0,1-3.33-.42,27.94,27.94,0,0,1-18-12,27.22,27.22,0,0,1-4.08-9.93,27.07,27.07,0,0,1,0-10.56,27.22,27.22,0,0,1,4.08-9.93A27.51,27.51,0,0,1,24,29.48L43.73,9.9l17.1,17A2,2,0,1,0,63.65,24L45.14,5.67a2,2,0,0,0-2.82,0l-21.15,21a31.79,31.79,0,0,0-4.09,5A31.55,31.55,0,0,0,14.15,61,32,32,0,0,0,31.73,78.39a32.61,32.61,0,0,0,5.91,1.74,35.15,35.15,0,0,0,4.09.51V92.85a2,2,0,0,0,4,0V80.64a35.15,35.15,0,0,0,4.09-.51,32.48,32.48,0,0,0,5.92-1.74,31.59,31.59,0,0,0,19.32-23.3,31.31,31.31,0,0,0,0-12.1,2,2,0,1,0-3.92.77,27.59,27.59,0,0,1,0,10.56,27.77,27.77,0,0,1-1.53,5.13,27.68,27.68,0,0,1-6.13,9.15,27.92,27.92,0,0,1-14.41,7.6,26.74,26.74,0,0,1-3.34.42V59.52Z"/><text x="0" y="115" fill="#000000" font-size="5px" font-weight="bold" font-family="'Helvetica Neue', Helvetica, Arial-Unicode, Arial, Sans-serif">Created by Shyam B</text><text x="0" y="120" fill="#000000" font-size="5px" font-weight="bold" font-family="'Helvetica Neue', Helvetica, Arial-Unicode, Arial, Sans-serif">from the Noun Project</text></svg>