<svg xmlns="http://www.w3.org/2000/svg" viewBox="0 0 100 125" x="0px" y="0px"><g data-name="Capa 2"><path d="M51.25,90.89A40.37,40.37,0,1,1,91.62,50.52,40.42,40.42,0,0,1,51.25,90.89Zm0-83.84A43.48,43.48,0,1,0,94.73,50.52,43.53,43.53,0,0,0,51.25,7.05Z"/><path d="M25.66,48a6.12,6.12,0,0,1,12.23,0A1.56,1.56,0,1,0,41,48a9.22,9.22,0,1,0-18.44,0,1.55,1.55,0,1,0,3.1,0Z"/><path d="M63.06,49.56A1.56,1.56,0,0,0,64.61,48a6.11,6.11,0,0,1,12.22,0,1.56,1.56,0,1,0,3.11,0A9.22,9.22,0,0,0,61.5,48a1.56,1.56,0,0,0,1.56,1.56Z"/><path d="M77.65,74.11A5.45,5.45,0,0,1,70,73.75l-4-4.37a29.38,29.38,0,0,0,3.56-2.27L73.23,71a1.52,1.52,0,0,0,1.13.49,1.55,1.55,0,0,0,1.13-2.62L72,65.13a30.87,30.87,0,0,0,2.51-2.6L78,66.43a5.45,5.45,0,0,1-.37,7.68Zm2.67-9.77L76.4,60c.42-.6.82-1.21,1.19-1.83a1.58,1.58,0,0,0,.26-.86A1.55,1.55,0,0,0,75,56.55a28.05,28.05,0,0,1-1.8,2.65,26.9,26.9,0,0,1-10.33,8.3,28,28,0,0,1-19.34,1.43,27.46,27.46,0,0,1-16-12.38,1.55,1.55,0,0,0-2.67,1.59,30.53,30.53,0,0,0,17.8,13.77,31,31,0,0,0,20.44-1.13l4.6,5.06a8.55,8.55,0,0,0,12.65-11.5Z"/></g><text x="0" y="115" fill="#000000" font-size="5px" font-weight="bold" font-family="'Helvetica Neue', Helvetica, Arial-Unicode, Arial, Sans-serif">Created by Lucky Day</text><text x="0" y="120" fill="#000000" font-size="5px" font-weight="bold" font-family="'Helvetica Neue', Helvetica, Arial-Unicode, Arial, Sans-serif">from the Noun Project</text></svg>