<svg xmlns="http://www.w3.org/2000/svg" viewBox="0 0 1512 182.3"><defs><style>.cls-1,.cls-2,.cls-3,.cls-4{isolation:isolate;}.cls-2,.cls-3,.cls-4{font-size:192px;font-family:Gontserrat-ExtraBold, Montserrat;font-weight:800;}.cls-2{fill:#fff8ec;}.cls-3{fill:none;stroke:#4e4e4e;stroke-width:2px;}.cls-4{fill:#1aa0b7;}.cls-5{fill:#e76668;}.cls-6{fill:#4e4e4e;}</style></defs><g id="Layer_2" data-name="Layer 2"><g id="best_sellers_" data-name="best sellers " class="cls-1"><text class="cls-2" transform="translate(165.08 162.38)">best </text><text class="cls-3" transform="translate(165.08 162.38)">best </text><text class="cls-4" transform="translate(643.54 162.38)">sellers!</text><text class="cls-3" transform="translate(643.54 162.38)">sellers!</text></g><g id="Polygon_2" data-name="Polygon 2"><path class="cls-5" d="M61.87,158.54,61.62,130l0-1.84-1.53,1-24.21,16,13.35-25.36.87-1.67-1.87.21-29,3.19,23.86-16.37,1.57-1.08-1.78-.68L15.67,93.09,44.6,89.42l1.89-.24-1.27-1.42L26.06,66.28l27.41,9.88,1.75.64L54.78,75,48,47.22,67.62,68.45l1.24,1.34L69.33,68l7.24-27.69L83.82,68l.46,1.77,1.24-1.34,19.6-21.23L98.37,75l-.44,1.81,1.75-.64,27.41-9.88L107.93,87.76l-1.27,1.42,1.89.24,28.93,3.67L110.3,103.42l-1.79.68,1.58,1.08L134,121.55l-29-3.19-1.87-.21.87,1.67,13.35,25.36-24.21-16-1.54-1V130l-.25,28.56L77.45,133.35l-.88-1.6-.87,1.6Z"/><path class="cls-6" d="M76.57,44.28l-6.28,24-.92,3.53-2.48-2.68-17-18.39,5.84,24,.88,3.62-3.5-1.26-23.7-8.55L46,87.1l2.53,2.83-3.77.48-25,3.17,23.43,8.9,3.58,1.36L43.63,106,23.05,120.12l25.05-2.75,3.74-.42-1.75,3.34-11.53,21.9,21-13.87,3.07-2,0,3.68.22,24.74,12-21.84,1.75-3.2,1.76,3.2,12,21.84L90.53,130l0-3.68,3.07,2,21,13.87-11.53-21.9L101.3,117l3.75.42,25,2.75L109.52,106l-3.15-2.16,3.57-1.36,23.44-8.9-25-3.17-3.77-.48,2.53-2.83,16.53-18.54L100,77.11l-3.5,1.26.88-3.62,5.84-24-17,18.39-2.48,2.68-.93-3.53-6.28-24m0-7.9,8.22,31.39L107,43.71,99.34,75.22,130.46,64,108.67,88.43l32.9,4.18-30.92,11.74L137.8,123l-33-3.63L120,148.16,92.53,130l-.29,32.39L76.57,133.83,60.9,162.38,60.62,130,33.15,148.16l15.17-28.81-33,3.63,27.14-18.63L11.57,92.61l32.9-4.18L22.69,64,53.81,75.22,46.14,43.71,68.36,67.77Z"/></g><g id="Polygon_2-2" data-name="Polygon 2"><path class="cls-5" d="M1423.51,158.54l-.26-28.56v-1.84l-1.54,1-24.21,16,13.35-25.36.88-1.67-1.87.21-29,3.19,23.85-16.37,1.58-1.08-1.79-.68-27.17-10.33,28.93-3.67,1.88-.24-1.26-1.42L1387.7,66.28l27.4,9.88,1.76.64-.44-1.81-6.76-27.77,19.6,21.23,1.24,1.34L1431,68l7.25-27.69L1445.46,68l.46,1.77,1.24-1.34,19.59-21.23L1460,75l-.44,1.81,1.75-.64,27.41-9.88-19.16,21.48-1.26,1.42,1.88.24,28.93,3.67-27.18,10.33-1.78.68,1.57,1.08,23.86,16.37-29-3.19-1.87-.21.88,1.67,13.35,25.36-24.22-16-1.53-1,0,1.84-.25,28.56-13.82-25.19-.88-1.6-.88,1.6Z"/><path class="cls-6" d="M1438.21,44.28l-6.28,24-.93,3.53-2.48-2.68-17-18.39,5.84,24,.88,3.62-3.5-1.26-23.7-8.55L1407.6,87.1l2.53,2.83-3.77.48-24.95,3.17,23.43,8.9,3.57,1.36-3.15,2.16-20.57,14.12,25-2.75,3.74-.42-1.75,3.34-11.54,21.9,21-13.87,3.07-2,0,3.68.22,24.74,12-21.84,1.75-3.2,1.75,3.2,12,21.84.21-24.74,0-3.68,3.07,2,21,13.87-11.53-21.9-1.75-3.34,3.74.42,25,2.75L1471.16,106l-3.15-2.16,3.57-1.36,23.43-8.9-25-3.17-3.77-.48,2.53-2.83,16.53-18.54-23.7,8.55-3.5,1.26.88-3.62,5.84-24-17,18.39-2.47,2.68-.93-3.53-6.28-24m0-7.9,8.21,31.39,22.22-24.06L1461,75.22,1492.1,64l-21.79,24.43,32.9,4.18-30.92,11.74L1499.43,123l-33-3.63,15.17,28.81L1454.16,130l-.28,32.39-15.67-28.55-15.67,28.55-.29-32.39-27.46,18.17L1410,119.35,1377,123l27.14-18.63-30.92-11.74,32.9-4.18L1384.32,64l31.12,11.22-7.66-31.51L1430,67.77Z"/></g></g></svg>