<svg xmlns="http://www.w3.org/2000/svg" width="256" height="256" viewBox="0 0 256 256">
  <g id="Group_15" data-name="Group 15" transform="translate(-809 -3454)">
    <g id="Ellipse_4" data-name="Ellipse 4" transform="translate(809 3454)" fill="#e76567" stroke="#4d4d4d" stroke-width="3">
      <circle cx="128" cy="128" r="128" stroke="none"/>
      <circle cx="128" cy="128" r="126.5" fill="none"/>
    </g>
    <g id="fresh-ingredients" transform="translate(879.341 3518.537)">
      <path id="Path_2" data-name="Path 2" d="M187.035,259.264a162.918,162.918,0,0,0-1.9-32.815,1.972,1.972,0,0,0-2.283-1.6,2.007,2.007,0,0,0-1.6,2.282q.206,1.181.385,2.365c0,.009,0,.017,0,.026a161.309,161.309,0,0,1,1.592,24.546h0c-.007.761-.018,1.45-.031,2.055v.007c0,.191-.008.374-.013.549,0,.017,0,.033,0,.048,0,.166-.009.323-.013.473,0,.02,0,.038,0,.057,0,.145-.008.282-.012.411,0,.019,0,.036,0,.054,0,.121-.007.235-.011.339,0,.017,0,.032,0,.047,0,.1-.007.185-.011.268,0,.019,0,.039,0,.058,0,.079-.006.149-.008.214,0,.02,0,.038,0,.057,0,.055-.006.1-.007.147,0,.018,0,.034,0,.049,0,.033,0,.061,0,.083s0,.033,0,.043,0,.021,0,.024a2.171,2.171,0,0,1,0,1.129c0,2.6-10.519,10.122-26.778,10.122a51.055,51.055,0,0,1-6.191-.376V256.1a1.973,1.973,0,0,0-3.946,0v16.99c-.479,2.85-1.993,7.3-3.812,8.106l-26.432,11.538a1.667,1.667,0,0,0-.352.2,7.13,7.13,0,0,1-4.419.819,1.943,1.943,0,0,0-.331,0,7.146,7.146,0,0,1-4.392-.8,1.964,1.964,0,0,0-.38-.219L79.641,281.2c-1.843-.819-3.328-5.183-3.824-8.112V261.955a1.973,1.973,0,1,0-3.946,0v11.293a1.966,1.966,0,0,0,.024.309c.149.938,1.585,9.222,6.155,11.253l26.273,11.469A11.033,11.033,0,0,0,111,297.694c.351.026.69.037,1.016.037a10.652,10.652,0,0,0,5.657-1.453L143.956,284.8c4.231-1.88,5.771-9.148,6.089-10.933a53.854,53.854,0,0,0,6.269.37c16.546,0,30.723-7.735,30.723-14.068a1.487,1.487,0,0,1,0-.91Z" transform="translate(-71.871 -171.43)" fill="#fff7eb"/>
      <path id="Path_3" data-name="Path 3" d="M334.652,99.231c2.114.042,3.839-.51,3.852-1.235s-1.685-1.344-3.8-1.386-3.838.511-3.852,1.234S332.539,99.188,334.652,99.231Z" transform="translate(-249.754 -83.37)" fill="#fff7eb"/>
      <path id="Path_4" data-name="Path 4" d="M294.31,84.27c-.014.725,1.687,1.346,3.8,1.387s3.836-.511,3.851-1.236-1.685-1.344-3.8-1.386S294.324,83.546,294.31,84.27Z" transform="translate(-224.655 -74.047)" fill="#fff7eb"/>
      <path id="Path_5" data-name="Path 5" d="M335.12,75.651c2.114.042,3.839-.511,3.852-1.235s-1.686-1.344-3.8-1.386-3.839.51-3.853,1.235S333.006,75.609,335.12,75.651Z" transform="translate(-250.075 -67.173)" fill="#fff7eb"/>
      <path id="Path_6" data-name="Path 6" d="M369.394,87.07c2.112.042,3.836-.511,3.851-1.236s-1.687-1.344-3.8-1.386-3.837.51-3.851,1.234S367.28,87.028,369.394,87.07Z" transform="translate(-273.617 -75.017)" fill="#fff7eb"/>
      <path id="Path_7" data-name="Path 7" d="M186.92,165.549c2.893,0,5.237-.65,5.237-1.454s-2.344-1.453-5.237-1.453-5.237.65-5.237,1.453S184.027,165.549,186.92,165.549Z" transform="translate(-147.296 -128.726)" fill="#fff7eb"/>
      <path id="Path_8" data-name="Path 8" d="M136.542,151.309c2.893,0,5.236-.651,5.236-1.454s-2.343-1.453-5.236-1.453-5.237.65-5.237,1.453S133.649,151.309,136.542,151.309Z" transform="translate(-112.693 -118.946)" fill="#fff7eb"/>
      <ellipse id="Ellipse_3" data-name="Ellipse 3" cx="5.237" cy="1.453" rx="5.237" ry="1.453" transform="translate(34.387 25.73)" fill="#fff7eb"/>
      <path id="Path_9" data-name="Path 9" d="M234.122,151.309c2.893,0,5.236-.65,5.236-1.455s-2.343-1.452-5.236-1.452-5.237.65-5.237,1.452S231.229,151.309,234.122,151.309Z" transform="translate(-179.717 -118.945)" fill="#fff7eb"/>
      <path id="Path_10" data-name="Path 10" d="M75.816,136.579V114.8c0-5.024,2.242-7.323,2.331-7.412l4.2-4.05c6.343,3.763,18.257,5.512,28.643,5.512,10.521,0,22.614-1.8,28.893-5.663l3.894,4.133c.025.027.052.053.078.078s2.32,2.342,2.32,7.4v15.752a1.973,1.973,0,1,0,3.946,0v-5.063c2.027.192,4.11.291,6.191.291,12.066,0,24.282-3.244,24.282-9.447a4.567,4.567,0,0,0-.032-.505c-.007-.058-.016-.115-.024-.173-.016-.108-.037-.215-.06-.322-.015-.065-.028-.131-.046-.195-.037-.137-.081-.274-.13-.408,0-.007,0-.014-.007-.022-.044-.116-.1-.23-.15-.344-.023-.051-.044-.1-.069-.152-.052-.1-.113-.205-.173-.307-.034-.058-.066-.117-.1-.174-.062-.1-.13-.192-.2-.287-.044-.059-.086-.12-.133-.178-.072-.091-.148-.182-.226-.272-.052-.059-.1-.118-.157-.177-.082-.088-.166-.174-.254-.26-.059-.058-.119-.115-.18-.172-.091-.084-.184-.168-.281-.251-.065-.055-.133-.11-.2-.164-.1-.081-.2-.163-.31-.243-.07-.052-.142-.1-.214-.154-.111-.08-.224-.16-.341-.238-.07-.046-.142-.09-.214-.135-.127-.08-.254-.162-.386-.24-.044-.026-.091-.05-.136-.076q-.486-.28-1.021-.541l-.122-.061c-.142-.068-.291-.134-.438-.2-.095-.043-.188-.086-.284-.128-.14-.061-.286-.12-.431-.179-.109-.045-.217-.09-.329-.133-.142-.056-.289-.111-.436-.165-.119-.044-.237-.089-.359-.132-.146-.052-.294-.1-.443-.152-.127-.043-.255-.085-.385-.127-.149-.048-.3-.095-.45-.141l-.411-.122q-.226-.066-.456-.13c-.143-.04-.288-.078-.434-.117s-.307-.081-.462-.12-.308-.075-.463-.112-.3-.073-.459-.108-.338-.074-.508-.11c-.146-.031-.29-.063-.437-.093-.219-.045-.442-.087-.665-.129-.174-.033-.348-.065-.523-.1-.248-.044-.5-.088-.748-.128-.137-.022-.276-.042-.414-.064-.2-.031-.4-.061-.6-.09-.148-.021-.3-.041-.448-.061-.193-.026-.387-.052-.582-.076-.152-.019-.306-.036-.46-.054-.195-.023-.39-.045-.586-.066l-.465-.047c-.2-.02-.394-.038-.592-.056l-.469-.04c-.2-.016-.4-.032-.6-.046l-.469-.033c-.2-.013-.411-.025-.617-.036l-.456-.024c-.215-.01-.432-.019-.649-.027l-.429-.017c-.239-.008-.478-.013-.718-.018l-.364-.008c-.359-.006-.721-.009-1.081-.009a65.134,65.134,0,0,0-7.821.464,10.96,10.96,0,0,0-1.859-2.753l-3.745-3.975a6.935,6.935,0,0,0,.554-.81,12.132,12.132,0,0,0,2.393-9.943,56.085,56.085,0,0,0,10.155,1.094q.624.012,1.239.012a45.62,45.62,0,0,0,16.219-2.63,42.821,42.821,0,0,1,6.056,13.776,1.971,1.971,0,0,0,1.859,1.452c.015,0,.028,0,.042,0a1.975,1.975,0,0,0,1.905-2.492,47.718,47.718,0,0,0-6.3-14.53,9.186,9.186,0,0,0,3.387-3.507c4.4-6.717.442-18.4.27-18.9a1.938,1.938,0,0,0-.12-.258c-.753-2.533-3.3-4.8-7.386-6.5a46.468,46.468,0,0,0-16.443-3.042,54.829,54.829,0,0,0-9.023.54,1.973,1.973,0,1,0,.571,3.9,51.044,51.044,0,0,1,8.373-.5,42.494,42.494,0,0,1,15,2.738c3.233,1.35,5.225,3.071,5.2,4.492s-2.086,3.061-5.371,4.282a42.541,42.541,0,0,1-15.1,2.141c-12.413-.245-20.255-4.446-20.2-7.229.029-1.42,2.087-3.061,5.372-4.282a1.973,1.973,0,0,0-1.375-3.7c-4.15,1.542-6.791,3.709-7.641,6.214a1.955,1.955,0,0,0-.126.246,34.455,34.455,0,0,0-2.2,12.711A82.736,82.736,0,0,0,111,73.806c-14.724,0-29.61,3.346-32.134,9.767-2.256,2.994-5.119,10.076-.325,16.225a7.052,7.052,0,0,0,.728,1.037l-3.846,3.705c-.145.137-3.55,3.446-3.55,10.264V136.58a1.973,1.973,0,1,0,3.946,0Zm80.5-25.743c12.615,0,20.336,3.562,20.336,5.5s-7.72,5.5-20.336,5.5a61.415,61.415,0,0,1-6.191-.305V114.8a18.419,18.419,0,0,0-.353-3.628A61.332,61.332,0,0,1,156.315,110.836ZM134.651,69.674c4.169,3.867,13.079,6.044,21.642,6.214q.593.012,1.181.012a45.454,45.454,0,0,0,15.37-2.4,17.342,17.342,0,0,0,5.325-2.97c.565,3.541.659,7.809-1.124,10.437a1.925,1.925,0,0,0-.166.3c-1.324,2.94-9.651,5.976-20.808,5.754a49.76,49.76,0,0,1-11.763-1.564,13.685,13.685,0,0,0-1.176-1.882c-1.063-2.706-4.322-4.866-8.839-6.459A21.61,21.61,0,0,1,134.651,69.674ZM90,80.515A71.924,71.924,0,0,1,111,77.751a71.919,71.919,0,0,1,20.993,2.764c5.23,1.671,7.571,3.724,7.571,5.019s-2.341,3.348-7.571,5.019A71.929,71.929,0,0,1,111,93.316,71.923,71.923,0,0,1,90,90.552c-5.231-1.671-7.572-3.725-7.572-5.019S84.773,82.186,90,80.515ZM80.25,89.635c4.644,5.022,17.759,7.626,30.747,7.626s26.084-2.6,30.736-7.615a8.383,8.383,0,0,1-1.478,7.838,1.946,1.946,0,0,0-.206.316c-1.8,3.419-13.423,7.109-29.056,7.109-15.649,0-27.266-3.694-29.056-7.117a1.982,1.982,0,0,0-.208-.319A8.368,8.368,0,0,1,80.25,89.635Z" transform="translate(-71.87 -54.334)" fill="#fff7eb"/>
      <path id="Path_11" data-name="Path 11" d="M100.93,344.812l19.345,7.867a4.925,4.925,0,0,0,1.852.378,3.9,3.9,0,0,0,2.2-.652,4.172,4.172,0,0,0,1.752-3.56V323.031a1.973,1.973,0,1,0-3.946,0v25.814a1.017,1.017,0,0,1-.03.266,1.067,1.067,0,0,1-.338-.088l-19.344-7.866a3.361,3.361,0,0,1-1.854-2.688V323.031a1.973,1.973,0,0,0-3.946,0V338.47A7.218,7.218,0,0,0,100.93,344.812Z" transform="translate(-88.867 -237.536)" fill="#fff7eb"/>
      <path id="Path_12" data-name="Path 12" d="M98.589,255.725a1.973,1.973,0,0,0,1.973-1.973V235.685a1.012,1.012,0,0,1,.03-.266,1.063,1.063,0,0,1,.338.087l19.345,7.867a3.357,3.357,0,0,1,1.854,2.686v7.693a1.973,1.973,0,1,0,3.946,0v-7.693a7.215,7.215,0,0,0-4.314-6.342l-19.345-7.867a4.27,4.27,0,0,0-4.048.274,4.171,4.171,0,0,0-1.752,3.559v18.068A1.973,1.973,0,0,0,98.589,255.725Z" transform="translate(-88.868 -176.004)" fill="#fff7eb"/>
      <path id="Path_13" data-name="Path 13" d="M204.552,290.872a3.9,3.9,0,0,0,2.2.651,4.925,4.925,0,0,0,1.852-.378l19.345-7.867a7.218,7.218,0,0,0,4.314-6.342V235.685a4.172,4.172,0,0,0-1.752-3.559,4.269,4.269,0,0,0-4.048-.274l-4.5,1.832a1.973,1.973,0,1,0,1.486,3.655l4.5-1.832a1.065,1.065,0,0,1,.338-.087.991.991,0,0,1,.031.266v41.252a3.361,3.361,0,0,1-1.855,2.687l-19.345,7.866a1.072,1.072,0,0,1-.337.088,1.018,1.018,0,0,1-.03-.266V246.06a3.358,3.358,0,0,1,1.854-2.687l7.774-3.161a1.973,1.973,0,1,0-1.487-3.655l-7.773,3.161a7.215,7.215,0,0,0-4.314,6.342v41.253A4.173,4.173,0,0,0,204.552,290.872Z" transform="translate(-161.8 -176.004)" fill="#fff7eb"/>
      <path id="Path_14" data-name="Path 14" d="M115.606,259.215v20.36a1.973,1.973,0,1,0,3.946,0v-20.36a1.973,1.973,0,1,0-3.946,0Z" transform="translate(-101.91 -193.703)" fill="#fff7eb"/>
      <path id="Path_15" data-name="Path 15" d="M402.339,284.9a1.973,1.973,0,0,0-1.973,1.973v14.838a1.973,1.973,0,1,0,3.946,0V286.876A1.973,1.973,0,0,0,402.339,284.9Z" transform="translate(-297.501 -212.702)" fill="#fff7eb"/>
    </g>
  </g>
</svg>
