<svg xmlns="http://www.w3.org/2000/svg" width="235.419" height="229.598" viewBox="0 0 235.419 229.598">
  <g id="order-now" transform="translate(-1677.29 -6271.584)">
    <g id="Polygon_9" data-name="Polygon 9" transform="matrix(0.999, 0.035, -0.035, 0.999, 1685.031, 6271.584)" fill="#febf46">
      <path d="M 87.25882720947266 218.5474853515625 L 84.35964965820313 169.5448760986328 L 84.26247406005859 167.9025573730469 L 82.84932708740234 168.7449951171875 L 40.08095550537109 194.2405395507813 L 60.71979904174805 149.5638732910156 L 61.42230224609375 148.0431671142578 L 59.75035858154297 148.1464080810547 L 9.837090492248535 151.2281188964844 L 49.2628288269043 121.090705871582 L 50.60968399047852 120.0611419677734 L 49.05709457397461 119.3804092407227 L 3.42299485206604 99.37165832519531 L 52.62232971191406 90.65261840820313 L 54.28441619873047 90.35805511474609 L 53.22756576538086 89.04187774658203 L 22.29608535766602 50.51996231079102 L 70.02556610107422 65.23191070556641 L 71.61159515380859 65.72076416015625 L 71.30265045166016 64.09011840820313 L 62.1625862121582 15.84883594512939 L 97.47615051269531 50.65035247802734 L 98.640625 51.79793930053711 L 99.13185882568359 50.23852920532227 L 113.9088592529297 3.328297138214111 L 128.6858825683594 50.23852920532227 L 129.1771240234375 51.79793930053711 L 130.3415985107422 50.65035247802734 L 165.6551818847656 15.84886360168457 L 156.5150909423828 64.09014129638672 L 156.2061462402344 65.72079467773438 L 157.7921752929688 65.23194122314453 L 205.5216674804688 50.51999282836914 L 174.5901794433594 89.04190826416016 L 173.5333251953125 90.35808563232422 L 175.1954193115234 90.65264129638672 L 224.3947296142578 99.37168884277344 L 178.7606506347656 119.3804092407227 L 177.2080688476563 120.0611419677734 L 178.5549163818359 121.090705871582 L 217.9806365966797 151.2281188964844 L 168.0673370361328 148.1464080810547 L 166.3953857421875 148.0431671142578 L 167.0978851318359 149.5638732910156 L 187.7367706298828 194.240478515625 L 144.9683837890625 168.7449645996094 L 143.5552368164063 167.9025573730469 L 143.4580688476563 169.5448760986328 L 140.5589294433594 218.5474700927734 L 114.7614440917969 176.4649658203125 L 113.9088897705078 175.0742340087891 L 113.0563278198242 176.4649658203125 L 87.25882720947266 218.5474853515625 Z" stroke="none"/>
      <path d="M 113.9088592529297 6.656631469726563 L 100.0856552124023 50.53900146484375 L 99.10321044921875 53.65782165527344 L 96.77421569824219 51.36257934570313 L 63.74110412597656 18.80845642089844 L 72.28515625 63.90396118164063 L 72.90306091308594 67.16526794433594 L 69.73100280761719 66.18753051757813 L 25.11695861816406 52.43586730957031 L 54.00727844238281 88.41572570800781 L 56.12100219726563 91.04814147949219 L 52.79679870605469 91.63726806640625 L 6.8460693359375 99.78062438964844 L 49.4586181640625 118.4645309448242 L 52.56382751464844 119.826057434082 L 49.8701171875 121.8851470947266 L 13.05429077148438 150.0275573730469 L 59.68873596191406 147.1482849121094 L 63.03262329101563 146.9418487548828 L 61.62759399414063 149.9832305908203 L 42.34332275390625 191.7276763916016 L 82.33729553222656 167.8860321044922 L 85.16355895996094 166.2012023925781 L 85.35789489746094 169.4858245849609 L 88.06915283203125 215.3122711181641 L 112.2037734985352 175.9423522949219 L 113.9088897705078 173.1608581542969 L 115.6140060424805 175.9423522949219 L 139.7485961914063 215.312255859375 L 142.4598388671875 169.4858245849609 L 142.6541442871094 166.2012023925781 L 145.4804077148438 167.8860321044922 L 185.4744262695313 191.7276458740234 L 166.1900939941406 149.9832305908203 L 164.7850646972656 146.9418487548828 L 168.1289520263672 147.1482849121094 L 214.7633819580078 150.0275573730469 L 177.9475708007813 121.8851776123047 L 175.2538604736328 119.8260879516602 L 178.3590698242188 118.4645538330078 L 220.9716339111328 99.78064727783203 L 175.0209197998047 91.63729858398438 L 171.6967163085938 91.04817199707031 L 173.8104553222656 88.41575622558594 L 202.7007904052734 52.43589782714844 L 158.0867309570313 66.18756103515625 L 154.9146728515625 67.16529846191406 L 155.5325927734375 63.90396118164063 L 164.07666015625 18.80848693847656 L 131.0435333251953 51.36257934570313 L 128.7145385742188 53.65782165527344 L 127.7320938110352 50.53900146484375 L 113.9088592529297 6.656631469726563 M 113.9088592529297 0 L 129.6396789550781 49.93807983398438 L 167.2337341308594 12.88920593261719 L 157.4976196289063 64.27629089355469 L 208.342529296875 48.60404968261719 L 175.3699188232422 89.66796875 L 227.8177185058594 98.96273040771484 L 179.1621856689453 120.2962341308594 L 221.1977386474609 152.4286499023438 L 168.0057067871094 149.1445007324219 L 189.9992065429688 196.75341796875 L 144.4563293457031 169.6039428710938 L 141.3692626953125 221.7827606201172 L 113.9088897705078 176.9876098632813 L 86.44847106933594 221.7827606201172 L 83.36138916015625 169.6039428710938 L 37.81854248046875 196.7534332275391 L 59.81198120117188 149.1445007324219 L 6.619949340820313 152.4286499023438 L 48.65550231933594 120.2962036132813 L 0 98.96270751953125 L 52.44779968261719 89.66793823242188 L 19.4752197265625 48.60403442382813 L 70.32012939453125 64.27626037597656 L 60.58403015136719 12.88917541503906 L 98.17807006835938 49.93807983398438 L 113.9088592529297 0 Z" stroke="none" fill="#4d4d4d"/>
    </g>
    <text id="order_now_" data-name="order
now!" transform="translate(1792.042 6387.5) rotate(-25)" fill="#4d4d4d" stroke="#4d4d4d" stroke-width="1" font-size="51" font-family="Gontserrat-ExtraBold, Montserrat" font-weight="800"><tspan x="-72.114" y="0">order</tspan><tspan x="-65.178" y="50">now!</tspan></text>
  </g>
</svg>
