<svg xmlns="http://www.w3.org/2000/svg" width="256" height="256" viewBox="0 0 256 256">
  <g id="Group_16" data-name="Group 16" transform="translate(-1152 -3454)">
    <g id="Ellipse_5" data-name="Ellipse 5" transform="translate(1152 3454)" fill="#e76567" stroke="#4d4d4d" stroke-width="3">
      <circle cx="128" cy="128" r="128" stroke="none"/>
      <circle cx="128" cy="128" r="126.5" fill="none"/>
    </g>
    <g id="vegan-options" transform="translate(1217.177 3513.912)">
      <path id="Path_16" data-name="Path 16" d="M113.955,28.323a2.83,2.83,0,0,0-3.988-4.016L59.769,74.1V38.066a2.828,2.828,0,1,0-5.656,0V73.078L39.562,58.7a2.828,2.828,0,1,0-3.973,4.016L54.113,81.1v25.142a37.585,37.585,0,0,1-4.709-.594A39.508,39.508,0,0,1,23.951,88.674a38.867,38.867,0,0,1,0-43.015,38.9,38.9,0,0,1,5.091-6.08l27.9-27.687,24.18,24.039a2.86,2.86,0,1,0,3.988-4.1L58.935,5.911a2.828,2.828,0,0,0-3.988,0L25.04,35.606a44.793,44.793,0,0,0-9.927,48.544,45.249,45.249,0,0,0,24.859,24.59,46.111,46.111,0,0,0,8.357,2.46,49.7,49.7,0,0,0,5.783.721v17.265a2.828,2.828,0,0,0,5.656,0V111.921a49.7,49.7,0,0,0,5.783-.721,45.927,45.927,0,0,0,8.371-2.46,44.671,44.671,0,0,0,27.319-50.057A2.828,2.828,0,1,0,95.7,59.771,38.828,38.828,0,0,1,84.868,94.9a39.48,39.48,0,0,1-20.376,10.747,37.812,37.812,0,0,1-4.723.594V82.057Z" transform="translate(0)" fill="#fff7eb"/>
    </g>
  </g>
</svg>
