<svg xmlns="http://www.w3.org/2000/svg" width="256" height="256" viewBox="0 0 256 256">
  <g id="Group_17" data-name="Group 17" transform="translate(-1495 -3454)">
    <g id="Ellipse_6" data-name="Ellipse 6" transform="translate(1495 3454)" fill="#e76567" stroke="#4d4d4d" stroke-width="3">
      <circle cx="128" cy="128" r="128" stroke="none"/>
      <circle cx="128" cy="128" r="126.5" fill="none"/>
    </g>
    <g id="yummy" transform="translate(1539.527 3499.248)">
      <path id="Path_17" data-name="Path 17" d="M83.473,153.023A70.288,70.288,0,1,1,153.76,82.735a70.288,70.288,0,0,1-70.288,70.288Zm0-145.973a75.7,75.7,0,1,0,75.7,75.7,75.7,75.7,0,0,0-75.7-75.7Z" transform="translate(0)" fill="#fff7eb"/>
      <path id="Path_18" data-name="Path 18" d="M27.957,54.833a10.655,10.655,0,0,1,21.294,0,2.716,2.716,0,1,0,5.415,0,16.053,16.053,0,1,0-32.106,0,2.7,2.7,0,0,0,5.4,0Z" transform="translate(10.961 23.515)" fill="#fff7eb"/>
      <path id="Path_19" data-name="Path 19" d="M64.216,57.549a2.716,2.716,0,0,0,2.7-2.716,10.638,10.638,0,1,1,21.276,0,2.716,2.716,0,1,0,5.415,0,16.053,16.053,0,0,0-32.106,0A2.716,2.716,0,0,0,64.216,57.549Z" transform="translate(39.819 23.515)" fill="#fff7eb"/>
      <path id="Path_20" data-name="Path 20" d="M116.934,87.686a9.489,9.489,0,0,1-13.319-.627l-6.964-7.609a51.154,51.154,0,0,0,6.2-3.952l6.39,6.773a2.647,2.647,0,0,0,1.967.853,2.7,2.7,0,0,0,1.967-4.562L107.1,72.051a53.746,53.746,0,0,0,4.37-4.527l6.076,6.79a9.489,9.489,0,0,1-.644,13.372Zm4.649-17.01-6.825-7.556c.731-1.045,1.428-2.107,2.072-3.186a2.751,2.751,0,0,0,.453-1.5,2.7,2.7,0,0,0-4.962-1.323,48.836,48.836,0,0,1-3.134,4.614A46.836,46.836,0,0,1,91.2,76.177a48.75,48.75,0,0,1-33.673,2.49A47.81,47.81,0,0,1,29.671,57.113a2.705,2.705,0,0,0-4.649,2.768A53.155,53.155,0,0,0,56.014,83.856,53.974,53.974,0,0,0,91.6,81.888l8.009,8.81a14.885,14.885,0,1,0,22.027-20.025Z" transform="translate(12.503 36.121)" fill="#fff7eb"/>
    </g>
  </g>
</svg>
